<?xml version="1.0" encoding="UTF-8"?>
<svg id="_图层_2" data-name="图层 2" xmlns="http://www.w3.org/2000/svg" viewBox="0 0 320.48 80.56">
  <defs>
    <style>
      .cls-1 {
        stroke-width: 0px;
      }
    </style>
  </defs>
  <g id="_图层_1-2" data-name="图层 1">
    <g>
      <g>
        <path class="cls-1" d="m319.77,36.67c-1.25-3.97-4.06-7.29-7.81-9.23-3.74-1.94-8.12-2.33-12.16-1.1-4.04,1.23-7.42,3.99-9.39,7.68-1.95,3.65-7.07,5.41-10.58,2.88-1.71-1.23-3.97-1.41-5.86-.47-1.89.94-3.08,2.85-3.08,4.93s1.19,3.99,3.08,4.93c1.89.94,4.16.76,5.86-.47,3.52-2.54,8.56-.93,10.6,2.87,2.77,5.14,8.21,8.34,14.12,8.33,5.91,0,11.34-3.24,14.09-8.38,1.97-3.68,2.37-7.98,1.12-11.95Zm-15.24,14.09c-5.29,0-9.57-4.21-9.57-9.41s4.29-9.41,9.57-9.41,9.57,4.21,9.57,9.41-4.29,9.41-9.57,9.41Z"/>
        <path class="cls-1" d="m212.11,49.06c-2.92,2.04-6.75,2.3-9.94.69-3.18-1.62-5.18-4.84-5.18-8.36,0-3.52,2-6.75,5.18-8.36,3.18-1.62,7.01-1.35,9.93.69,1.44,1,3.43.67,4.45-.74,1.02-1.41.68-3.37-.76-4.37-4.87-3.4-11.25-3.84-16.55-1.15-5.3,2.69-8.64,8.07-8.64,13.94,0,5.87,3.33,11.25,8.63,13.94,5.3,2.69,11.69,2.25,16.56-1.15,1.44-1,1.78-2.96.76-4.37-1.02-1.41-3.01-1.75-4.45-.74Z"/>
        <path class="cls-1" d="m282.05,33.68c1.44,1,3.43.67,4.45-.74,1.02-1.41.68-3.37-.76-4.37-3.75-2.62-8.47-3.52-12.94-2.47-4.48,1.05-8.27,3.95-10.42,7.95-1.34,2.5-3.97,4.06-6.84,4.06s-5.5-1.56-6.84-4.06c-2.76-5.15-8.2-8.38-14.12-8.38s-11.36,3.23-14.12,8.38c-1.95,3.65-7.07,5.41-10.58,2.88-1.71-1.23-3.97-1.41-5.86-.47-1.89.94-3.08,2.85-3.08,4.93s1.19,3.99,3.08,4.93c1.89.94,4.15.76,5.86-.47,3.52-2.54,8.56-.93,10.6,2.87,2.77,5.14,8.21,8.34,14.12,8.33,5.91,0,11.34-3.24,14.09-8.38,1.7-3.17,5.42-4.74,8.93-3.77,1.72.48,2.91,2.02,2.91,3.77,0,1.75,0,3.5,0,5.24,0,1.73,1.43,3.14,3.19,3.14,1.76,0,3.19-1.4,3.19-3.14,0-4.11,0-8.23,0-12.34,0-.88.08-1.72.31-2.57.23-.85.55-1.64,1.01-2.4.9-1.51,2.2-2.74,3.77-3.55,3.2-1.67,7.08-1.42,10.03.64Zm-47.45,17.09c-5.29,0-9.57-4.21-9.57-9.41s4.29-9.41,9.57-9.41,9.57,4.21,9.57,9.41-4.29,9.41-9.57,9.41Z"/>
      </g>
      <g id="POLYLINE">
        <polygon class="cls-1" points="176.71 78.39 176.71 77.59 176.71 76.78 176.71 75.98 176.71 75.17 176.71 74.37 176.71 73.57 176.71 72.76 176.71 71.96 176.71 71.15 176.71 70.35 176.71 69.55 176.71 68.74 176.71 67.94 176.71 67.13 176.71 66.33 176.71 65.53 176.71 64.72 176.71 63.92 176.71 63.12 176.71 62.31 176.71 61.51 176.71 60.7 176.71 59.9 176.71 59.1 176.71 58.29 176.71 57.49 176.71 56.68 176.71 55.88 176.71 55.08 176.71 54.27 176.71 53.47 176.71 52.66 176.71 51.86 176.71 51.06 176.71 50.25 176.71 49.45 176.71 48.64 176.71 47.84 176.71 47.04 176.71 46.23 176.71 45.43 176.71 44.62 176.71 43.82 176.71 43.02 176.71 42.21 176.71 41.41 176.71 40.6 176.71 39.8 176.71 39 176.71 38.19 176.71 37.39 176.71 36.59 176.71 35.78 176.71 34.98 176.71 34.17 176.71 33.37 176.71 32.57 176.71 31.76 176.71 30.96 176.71 30.15 176.71 29.35 176.71 28.55 176.71 27.74 176.71 26.94 176.71 26.13 176.71 25.33 176.71 24.53 176.71 23.72 176.71 22.92 176.71 22.11 176.71 21.31 176.71 20.51 176.71 19.7 176.71 18.9 176.71 18.1 176.71 17.29 176.71 16.49 176.71 15.68 176.71 14.88 176.71 14.08 176.71 13.27 176.71 12.47 176.71 11.66 176.71 10.86 176.71 10.06 176.71 9.25 176.71 8.45 176.71 7.64 176.71 6.84 176.71 6.04 176.71 5.23 176.71 4.43 176.71 3.62 176.71 2.82 176.71 2.02 176.71 1.98 176.71 1.94 176.71 1.91 176.71 1.87 176.7 1.83 176.7 1.8 176.69 1.76 176.69 1.72 176.68 1.68 176.68 1.65 176.67 1.61 176.66 1.57 176.65 1.53 176.64 1.5 176.63 1.46 176.62 1.42 176.61 1.38 176.59 1.34 176.58 1.31 176.57 1.27 176.55 1.23 176.54 1.19 176.52 1.16 176.5 1.12 176.48 1.08 176.46 1.05 176.44 1.01 176.42 .98 176.4 .94 176.38 .91 176.35 .87 176.33 .84 176.31 .8 176.28 .77 176.26 .74 176.23 .71 176.2 .67 176.17 .64 176.14 .61 176.11 .58 176.08 .55 176.05 .53 176.02 .5 175.99 .47 175.96 .44 175.92 .42 175.89 .39 175.86 .37 175.82 .34 175.79 .32 175.75 .3 175.72 .28 175.68 .26 175.65 .24 175.61 .22 175.57 .2 175.53 .18 175.5 .17 175.46 .15 175.42 .14 175.38 .12 175.35 .11 175.31 .1 175.27 .08 175.23 .07 175.2 .06 175.16 .05 175.12 .05 175.08 .04 175.04 .03 175.01 .02 174.97 .02 174.93 .01 174.89 0 174.86 0 174.82 0 174.79 0 174.75 0 174.71 0 174.67 0 174.64 0 174.6 0 174.57 0 174.53 0 174.5 0 174.46 .01 174.42 .02 174.38 .02 174.35 .03 174.31 .04 174.27 .05 174.23 .05 174.19 .06 174.15 .07 174.12 .08 174.08 .1 174.04 .11 174 .12 173.97 .14 173.93 .15 173.89 .17 173.85 .18 173.81 .2 173.78 .22 173.74 .24 173.71 .26 173.67 .28 173.64 .3 173.6 .32 173.57 .34 173.53 .37 173.5 .39 173.47 .42 173.43 .44 173.4 .47 173.37 .5 173.34 .53 173.31 .55 173.27 .58 173.25 .61 173.22 .64 173.19 .67 173.16 .71 173.13 .74 173.11 .77 173.08 .8 173.06 .84 173.04 .87 173.01 .91 172.99 .94 172.97 .98 172.95 1.01 172.93 1.05 172.9 1.08 172.89 1.12 172.87 1.16 172.85 1.19 172.84 1.23 172.82 1.27 172.81 1.31 172.79 1.34 172.78 1.38 172.77 1.42 172.76 1.46 172.74 1.5 172.74 1.53 172.73 1.57 172.72 1.61 172.71 1.65 172.71 1.68 172.7 1.72 172.69 1.76 172.69 1.8 172.69 1.83 172.68 1.87 172.68 1.91 172.68 1.94 172.68 1.98 172.68 2.02 172.68 2.82 172.68 3.62 172.68 4.43 172.68 5.23 172.68 6.04 172.68 6.84 172.68 7.64 172.68 8.45 172.68 9.25 172.68 10.06 172.68 10.86 172.68 11.66 172.68 12.47 172.68 13.27 172.68 14.08 172.68 14.88 172.68 15.68 172.68 16.49 172.68 17.29 172.68 18.1 172.68 18.9 172.68 19.7 172.68 20.51 172.68 21.31 172.68 22.11 172.68 22.92 172.68 23.72 172.68 24.53 172.68 25.33 172.68 26.13 172.68 26.94 172.68 27.74 172.68 28.55 172.68 29.35 172.68 30.15 172.68 30.96 172.68 31.76 172.68 32.57 172.68 33.37 172.68 34.17 172.68 34.98 172.68 35.78 172.68 36.59 172.68 37.39 172.68 38.19 172.68 39 172.68 39.8 172.68 40.6 172.68 41.41 172.68 42.21 172.68 43.02 172.68 43.82 172.68 44.62 172.68 45.43 172.68 46.23 172.68 47.04 172.68 47.84 172.68 48.64 172.68 49.45 172.68 50.25 172.68 51.06 172.68 51.86 172.68 52.66 172.68 53.47 172.68 54.27 172.68 55.08 172.68 55.88 172.68 56.68 172.68 57.49 172.68 58.29 172.68 59.1 172.68 59.9 172.68 60.7 172.68 61.51 172.68 62.31 172.68 63.12 172.68 63.92 172.68 64.72 172.68 65.53 172.68 66.33 172.68 67.13 172.68 67.94 172.68 68.74 172.68 69.55 172.68 70.35 172.68 71.15 172.68 71.96 172.68 72.76 172.68 73.57 172.68 74.37 172.68 75.17 172.68 75.98 172.68 76.78 172.68 77.59 172.68 78.39 172.68 78.43 172.68 78.46 172.68 78.5 172.68 78.54 172.69 78.57 172.69 78.61 172.69 78.65 172.7 78.68 172.71 78.72 172.71 78.76 172.72 78.8 172.73 78.83 172.74 78.87 172.74 78.91 172.76 78.95 172.77 78.99 172.78 79.02 172.79 79.06 172.81 79.1 172.82 79.14 172.84 79.17 172.85 79.21 172.87 79.25 172.89 79.28 172.9 79.32 172.93 79.36 172.95 79.39 172.97 79.43 172.99 79.46 173.01 79.5 173.04 79.53 173.06 79.57 173.08 79.6 173.11 79.64 173.13 79.67 173.16 79.7 173.19 79.73 173.22 79.76 173.25 79.79 173.27 79.82 173.31 79.85 173.34 79.88 173.37 79.91 173.4 79.94 173.43 79.96 173.47 79.99 173.5 80.01 173.53 80.04 173.57 80.06 173.6 80.08 173.64 80.11 173.67 80.13 173.71 80.15 173.74 80.17 173.78 80.19 173.81 80.21 173.85 80.22 173.89 80.24 173.93 80.26 173.97 80.27 174 80.28 174.04 80.3 174.08 80.31 174.12 80.32 174.15 80.33 174.19 80.34 174.23 80.35 174.27 80.36 174.31 80.37 174.35 80.38 174.38 80.38 174.42 80.39 174.46 80.39 174.5 80.4 174.53 80.4 174.57 80.4 174.6 80.4 174.64 80.41 174.67 80.41 174.71 80.41 174.75 80.41 174.79 80.4 174.82 80.4 174.86 80.4 174.89 80.4 174.93 80.39 174.97 80.39 175.01 80.38 175.04 80.38 175.08 80.37 175.12 80.36 175.16 80.35 175.2 80.34 175.23 80.33 175.27 80.32 175.31 80.31 175.35 80.3 175.38 80.28 175.42 80.27 175.46 80.26 175.5 80.24 175.53 80.22 175.57 80.21 175.61 80.19 175.65 80.17 175.68 80.15 175.72 80.13 175.75 80.11 175.79 80.08 175.82 80.06 175.86 80.04 175.89 80.01 175.92 79.99 175.96 79.96 175.99 79.94 176.02 79.91 176.05 79.88 176.08 79.85 176.11 79.82 176.14 79.79 176.17 79.76 176.2 79.73 176.23 79.7 176.26 79.67 176.28 79.64 176.31 79.6 176.33 79.57 176.35 79.53 176.38 79.5 176.4 79.46 176.42 79.43 176.44 79.39 176.46 79.36 176.48 79.32 176.5 79.28 176.52 79.25 176.54 79.21 176.55 79.17 176.57 79.14 176.58 79.1 176.59 79.06 176.61 79.02 176.62 78.99 176.63 78.95 176.64 78.91 176.65 78.87 176.66 78.83 176.67 78.8 176.68 78.76 176.68 78.72 176.69 78.68 176.69 78.65 176.7 78.61 176.7 78.57 176.71 78.54 176.71 78.5 176.71 78.46 176.71 78.43 176.71 78.39"/>
      </g>
      <g>
        <g>
          <g>
            <path class="cls-1" d="m7.92,23.95c-2.65,0-4.63-.66-5.95-1.99-1.32-1.33-1.97-3.14-1.97-5.44v-1.77h4.88v1.65c0,1.16.24,1.98.71,2.45.48.48,1.15.71,2.02.71s1.54-.25,1.96-.76c.41-.51.62-1.23.62-2.16V.4h5.31v16.37c0,1.95-.49,3.5-1.46,4.66-.62.79-1.44,1.4-2.47,1.85-1.03.44-2.24.67-3.65.67Z"/>
            <path class="cls-1" d="m30.01,24.07c-1.76,0-3.35-.3-4.75-.9-1.41-.6-2.61-1.44-3.6-2.52-.99-1.08-1.76-2.35-2.28-3.82-.53-1.47-.79-3.06-.79-4.78s.26-3.34.79-4.82c.53-1.47,1.29-2.74,2.28-3.81.99-1.07,2.19-1.91,3.6-2.52,1.41-.61,2.99-.92,4.75-.92s3.31.31,4.72.92c1.41.61,2.61,1.45,3.6,2.52.99,1.07,1.76,2.34,2.28,3.81.53,1.47.79,3.08.79,4.82s-.26,3.31-.79,4.78c-.53,1.47-1.29,2.74-2.28,3.82-.99,1.08-2.2,1.92-3.6,2.52-1.41.6-2.98.9-4.72.9Zm.03-4.35c.99,0,1.86-.2,2.61-.59.75-.39,1.37-.93,1.86-1.62.5-.68.87-1.49,1.12-2.42s.37-1.95.37-3.04-.12-2.12-.37-3.06-.62-1.77-1.12-2.47c-.5-.7-1.12-1.25-1.86-1.65-.75-.39-1.62-.59-2.61-.59s-1.87.2-2.63.59c-.76.39-1.39.94-1.89,1.65-.51.7-.89,1.53-1.15,2.47-.26.94-.39,1.96-.39,3.06s.13,2.11.39,3.04c.26.93.64,1.74,1.15,2.42.51.68,1.14,1.22,1.89,1.62.76.39,1.63.59,2.63.59Z"/>
            <path class="cls-1" d="m54.08,23.95c-3.15,0-5.53-.73-7.16-2.19-1.63-1.46-2.44-3.56-2.44-6.29V.4h5.28v15.19c0,1.26.35,2.26,1.04,2.98.69.73,1.79,1.09,3.28,1.09,1.39,0,2.43-.38,3.14-1.13.7-.76,1.06-1.76,1.06-3.03V.4h5.31v15.07c0,2.71-.81,4.81-2.42,6.28-1.62,1.47-3.98,2.21-7.08,2.21Z"/>
            <path class="cls-1" d="m76.82,15.13h-3.85v8.39h-5.37V.4h10.47c2.73,0,4.8.71,6.21,2.14.7.68,1.25,1.47,1.63,2.36.38.89.57,1.9.57,3.01,0,1.55-.39,2.89-1.16,4.01-.78,1.12-1.85,1.95-3.22,2.49l5.41,9.1h-5.96l-4.72-8.39Zm-3.85-4.19h4.75c1.12,0,1.97-.25,2.56-.76.59-.51.89-1.26.89-2.25s-.3-1.74-.9-2.25c-.6-.51-1.45-.76-2.55-.76h-4.75v6.03Z"/>
            <path class="cls-1" d="m90.21.4h5.4l6.09,10.03c.35.6.71,1.25,1.07,1.94.36.69.7,1.35,1.01,1.97l1.09,2.17h.06c-.06-.79-.11-1.58-.16-2.39-.04-.68-.07-1.42-.09-2.21-.02-.79-.03-1.51-.03-2.17V.4h5.06v23.11h-5.44l-6.03-9.91c-.35-.58-.71-1.23-1.09-1.96-.37-.72-.71-1.4-1.03-2.02-.37-.72-.74-1.46-1.09-2.21h-.06c.04.81.08,1.62.12,2.42.04.68.08,1.42.11,2.21.03.79.05,1.51.05,2.17v9.29h-5.06V.4Z"/>
            <path class="cls-1" d="m120.65.4h5.5l8.36,23.11h-5.59l-1.46-4.41h-8.39l-1.43,4.41h-5.31L120.65.4Zm-.34,14.91h5.93l-1.4-4.32c-.25-.79-.47-1.55-.65-2.28-.19-.73-.34-1.39-.47-1.97-.15-.68-.27-1.31-.37-1.89h-.06c-.17.77-.33,1.51-.5,2.24-.17.62-.34,1.29-.51,2-.18.71-.36,1.35-.54,1.91l-1.43,4.32Z"/>
            <path class="cls-1" d="m137.21.4h5.28v18.58h10.65v4.54h-15.94V.4Z"/>
          </g>
          <g>
            <path class="cls-1" d="m9.1,52.4c-1.35,0-2.57-.15-3.65-.46-1.08-.31-2.01-.75-2.78-1.32-.77-.58-1.37-1.29-1.8-2.15-.42-.86-.65-1.82-.69-2.91h4.65c.13,1.1.54,1.9,1.26,2.41.71.5,1.72.76,3.01.76.45,0,.88-.04,1.3-.13.41-.09.78-.23,1.11-.42.32-.19.58-.43.77-.73s.28-.65.28-1.07-.1-.79-.31-1.08c-.21-.29-.51-.53-.91-.73-.4-.2-.88-.37-1.46-.53-.58-.15-1.23-.31-1.95-.47-.97-.22-1.89-.46-2.76-.73-.86-.27-1.62-.63-2.27-1.07-.65-.44-1.16-1-1.53-1.68-.37-.68-.55-1.54-.55-2.58s.2-1.95.59-2.7c.4-.76.95-1.38,1.65-1.88.7-.5,1.53-.87,2.49-1.11.95-.24,1.99-.36,3.11-.36s2.12.13,3.05.38c.94.25,1.75.63,2.43,1.13.68.5,1.23,1.13,1.65,1.88.41.75.66,1.62.73,2.61h-4.51c-.13-.79-.49-1.41-1.08-1.84-.59-.43-1.4-.65-2.41-.65-.96,0-1.72.19-2.3.57-.58.38-.87.88-.87,1.51,0,.4.11.72.32.97.22.25.53.47.95.66.41.19.92.36,1.53.5.6.14,1.3.31,2.09.49.9.2,1.77.44,2.61.72.84.28,1.58.65,2.22,1.12.64.47,1.15,1.05,1.54,1.76s.58,1.59.58,2.65-.21,1.97-.62,2.77c-.41.8-.99,1.48-1.72,2.03-.73.55-1.59.97-2.57,1.26-.98.29-2.05.43-3.2.43Z"/>
            <path class="cls-1" d="m18.53,31.81h16.59v3.92h-6v16.19h-4.62v-16.19h-5.97v-3.92Z"/>
            <path class="cls-1" d="m41.26,31.81h4.78l7.27,20.11h-4.87l-1.27-3.84h-7.3l-1.24,3.84h-4.62l7.24-20.11Zm-.3,12.97h5.16l-1.22-3.76c-.22-.68-.41-1.35-.57-1.99-.16-.64-.3-1.21-.41-1.72-.13-.59-.23-1.14-.32-1.65h-.05c-.14.67-.29,1.32-.43,1.95-.14.54-.29,1.12-.45,1.74-.15.62-.31,1.18-.47,1.66l-1.24,3.76Z"/>
            <path class="cls-1" d="m55.67,31.81h4.7l5.3,8.73c.31.52.62,1.09.93,1.69.31.6.61,1.18.88,1.72l.95,1.89h.05c-.05-.68-.1-1.38-.14-2.08-.04-.59-.06-1.23-.08-1.92-.02-.68-.03-1.31-.03-1.89v-8.14h4.41v20.11h-4.73l-5.24-8.62c-.31-.5-.62-1.07-.95-1.7-.32-.63-.62-1.22-.89-1.76-.32-.63-.64-1.27-.95-1.92h-.05c.04.7.07,1.41.11,2.11.04.59.07,1.23.09,1.92.03.68.04,1.32.04,1.89v8.08h-4.41v-20.11Z"/>
            <path class="cls-1" d="m76.4,31.81h8.38c1.41,0,2.68.24,3.82.73,1.14.49,2.12,1.17,2.93,2.05.81.88,1.43,1.96,1.86,3.22.43,1.26.65,2.66.65,4.19s-.21,2.85-.62,4.07c-.42,1.22-1.03,2.26-1.84,3.12-.81.87-1.81,1.54-3,2.01-1.19.48-2.55.72-4.08.72h-8.11v-20.11Zm7.76,16.22c1.75,0,3.05-.52,3.91-1.57.86-1.04,1.28-2.53,1.28-4.46s-.43-3.44-1.28-4.58c-.86-1.14-2.13-1.72-3.82-1.72h-3.22v12.32h3.13Z"/>
            <path class="cls-1" d="m101.48,31.81h4.78l7.27,20.11h-4.87l-1.27-3.84h-7.3l-1.24,3.84h-4.62l7.24-20.11Zm-.3,12.97h5.16l-1.22-3.76c-.22-.68-.41-1.35-.57-1.99-.16-.64-.3-1.21-.41-1.72-.13-.59-.23-1.14-.32-1.65h-.05c-.14.67-.29,1.32-.43,1.95-.14.54-.29,1.12-.45,1.74-.15.62-.31,1.18-.47,1.66l-1.24,3.76Z"/>
            <path class="cls-1" d="m123.91,44.62h-3.35v7.3h-4.68v-20.11h9.11c2.38,0,4.18.62,5.41,1.86.61.59,1.09,1.28,1.42,2.05.33.77.5,1.65.5,2.62,0,1.35-.34,2.51-1.01,3.49-.68.97-1.61,1.69-2.8,2.16l4.7,7.92h-5.19l-4.11-7.3Zm-3.35-3.65h4.13c.97,0,1.72-.22,2.23-.66.51-.44.77-1.09.77-1.96s-.26-1.52-.78-1.96c-.52-.44-1.26-.66-2.22-.66h-4.13v5.24Z"/>
            <path class="cls-1" d="m135.61,31.81h8.38c1.41,0,2.68.24,3.82.73,1.14.49,2.12,1.17,2.93,2.05.81.88,1.43,1.96,1.86,3.22.43,1.26.65,2.66.65,4.19s-.21,2.85-.62,4.07c-.42,1.22-1.03,2.26-1.84,3.12-.81.87-1.81,1.54-3,2.01-1.19.48-2.55.72-4.08.72h-8.11v-20.11Zm7.76,16.22c1.75,0,3.05-.52,3.91-1.57.86-1.04,1.28-2.53,1.28-4.46s-.43-3.44-1.28-4.58c-.86-1.14-2.13-1.72-3.82-1.72h-3.22v12.32h3.13Z"/>
          </g>
        </g>
        <g>
          <path class="cls-1" d="m0,61.18h14.38v3.71H4.48v4.14h8.27v3.55H4.48v7.62H0v-19.02Z"/>
          <path class="cls-1" d="m16.88,73.58v-12.4h4.48v12.5c0,2.07,1.13,3.35,3.66,3.35,2.34,0,3.56-1.36,3.56-3.43v-12.42h4.5v12.4c0,4.42-2.82,6.98-8.06,6.98s-8.14-2.51-8.14-6.98Z"/>
          <path class="cls-1" d="m44.25,73.3h-3.27v6.9h-4.56v-19.02h8.88c2.34,0,4.08.59,5.27,1.76,1.19,1.13,1.87,2.58,1.87,4.42,0,2.53-1.42,4.45-3.71,5.34l4.58,7.49h-5.06l-4-6.9Zm-3.27-3.45h4.03c1.87,0,2.92-.87,2.92-2.48s-1.08-2.48-2.92-2.48h-4.03v4.96Z"/>
          <path class="cls-1" d="m55.31,61.18h4.58l5.16,8.26c1.16,1.92,2.69,5.01,2.69,5.01h.05s-.24-3.4-.24-5.57v-7.69h4.29v19.02h-4.61l-5.11-8.15c-1.19-1.92-2.71-5.09-2.71-5.09h-.05s.24,3.43.24,5.6v7.64h-4.29v-19.02Z"/>
          <path class="cls-1" d="m75.35,61.18h4.5v19.02h-4.5v-19.02Z"/>
          <path class="cls-1" d="m82.39,61.18h16.17v3.71h-5.85v15.31h-4.5v-15.31h-5.82v-3.71Z"/>
          <path class="cls-1" d="m100.48,73.58v-12.4h4.48v12.5c0,2.07,1.13,3.35,3.66,3.35,2.34,0,3.56-1.36,3.56-3.43v-12.42h4.5v12.4c0,4.42-2.82,6.98-8.06,6.98s-8.14-2.51-8.14-6.98Z"/>
          <path class="cls-1" d="m127.32,73.3h-3.27v6.9h-4.56v-19.02h8.88c2.34,0,4.08.59,5.27,1.76,1.19,1.13,1.87,2.58,1.87,4.42,0,2.53-1.42,4.45-3.71,5.34l4.58,7.49h-5.06l-4-6.9Zm-3.27-3.45h4.03c1.87,0,2.92-.87,2.92-2.48s-1.08-2.48-2.92-2.48h-4.03v4.96Z"/>
          <path class="cls-1" d="m138.38,61.18h14.7v3.63h-10.22v3.78h8.85v3.45h-8.85v4.42h10.4v3.73h-14.88v-19.02Z"/>
        </g>
      </g>
    </g>
  </g>
</svg>