<?xml version="1.0" encoding="UTF-8"?>
<svg id="_图层_2" data-name="图层 2" xmlns="http://www.w3.org/2000/svg" viewBox="0 0 320.57 80.58">
  <defs>
    <style>
      .cls-1 {
        fill: #fff;
        stroke-width: 0px;
      }
    </style>
  </defs>
  <g id="_图层_1-2" data-name="图层 1">
    <g>
      <g>
        <path class="cls-1" d="m319.86,36.68c-1.25-3.97-4.06-7.3-7.81-9.23-3.75-1.94-8.12-2.33-12.16-1.1-4.04,1.23-7.42,4-9.39,7.68-1.95,3.65-7.07,5.41-10.58,2.88-1.71-1.23-3.97-1.41-5.86-.47-1.89.94-3.08,2.85-3.08,4.93s1.19,3.99,3.08,4.93c1.89.94,4.16.76,5.86-.47,3.52-2.54,8.56-.93,10.61,2.87,2.77,5.14,8.21,8.34,14.13,8.33,5.92,0,11.34-3.24,14.1-8.38,1.97-3.68,2.37-7.98,1.12-11.96Zm-15.24,14.1c-5.29,0-9.58-4.21-9.58-9.41s4.29-9.41,9.58-9.41,9.58,4.21,9.58,9.41-4.29,9.41-9.58,9.41Z"/>
        <path class="cls-1" d="m212.17,49.07c-2.92,2.04-6.76,2.3-9.94.69-3.18-1.62-5.18-4.84-5.18-8.36,0-3.52,2-6.75,5.18-8.36,3.18-1.62,7.02-1.35,9.94.69,1.44,1,3.43.67,4.45-.74,1.02-1.41.68-3.37-.76-4.38-4.87-3.4-11.26-3.84-16.56-1.15-5.31,2.69-8.64,8.07-8.64,13.94,0,5.87,3.33,11.25,8.64,13.94,5.3,2.69,11.69,2.25,16.56-1.15,1.44-1,1.78-2.96.76-4.38-1.02-1.41-3.01-1.75-4.45-.74Z"/>
        <path class="cls-1" d="m282.13,33.69c1.44,1,3.43.67,4.45-.74,1.02-1.41.68-3.37-.76-4.38-3.75-2.62-8.47-3.52-12.94-2.47-4.48,1.05-8.28,3.95-10.42,7.95-1.34,2.5-3.97,4.06-6.84,4.06s-5.5-1.56-6.84-4.06c-2.76-5.16-8.2-8.38-14.12-8.38s-11.36,3.23-14.12,8.38c-1.95,3.65-7.07,5.41-10.58,2.88-1.71-1.23-3.98-1.41-5.86-.47-1.89.94-3.08,2.85-3.08,4.93s1.19,3.99,3.08,4.93c1.89.94,4.16.76,5.86-.47,3.52-2.54,8.56-.93,10.61,2.87,2.77,5.14,8.21,8.34,14.13,8.33,5.92,0,11.34-3.24,14.1-8.38,1.7-3.17,5.42-4.75,8.93-3.77,1.72.48,2.91,2.02,2.91,3.77,0,1.75,0,3.5,0,5.25,0,1.73,1.43,3.14,3.19,3.14,1.76,0,3.19-1.4,3.19-3.14,0-4.11,0-8.23,0-12.34,0-.88.08-1.72.31-2.57.23-.85.55-1.64,1.01-2.4.9-1.51,2.2-2.74,3.77-3.55,3.2-1.67,7.08-1.42,10.03.64Zm-47.47,17.09c-5.29,0-9.58-4.21-9.58-9.41s4.29-9.41,9.58-9.41,9.58,4.21,9.58,9.41-4.29,9.41-9.58,9.41Z"/>
      </g>
      <g id="POLYLINE">
        <polygon class="cls-1" points="176.76 78.41 176.76 77.61 176.76 76.8 176.76 76 176.76 75.2 176.76 74.39 176.76 73.59 176.76 72.78 176.76 71.98 176.76 71.17 176.76 70.37 176.76 69.57 176.76 68.76 176.76 67.96 176.76 67.15 176.76 66.35 176.76 65.55 176.76 64.74 176.76 63.94 176.76 63.13 176.76 62.33 176.76 61.52 176.76 60.72 176.76 59.92 176.76 59.11 176.76 58.31 176.76 57.5 176.76 56.7 176.76 55.9 176.76 55.09 176.76 54.29 176.76 53.48 176.76 52.68 176.76 51.87 176.76 51.07 176.76 50.27 176.76 49.46 176.76 48.66 176.76 47.85 176.76 47.05 176.76 46.25 176.76 45.44 176.76 44.64 176.76 43.83 176.76 43.03 176.76 42.22 176.76 41.42 176.76 40.62 176.76 39.81 176.76 39.01 176.76 38.2 176.76 37.4 176.76 36.6 176.76 35.79 176.76 34.99 176.76 34.18 176.76 33.38 176.76 32.58 176.76 31.77 176.76 30.97 176.76 30.16 176.76 29.36 176.76 28.55 176.76 27.75 176.76 26.95 176.76 26.14 176.76 25.34 176.76 24.53 176.76 23.73 176.76 22.93 176.76 22.12 176.76 21.32 176.76 20.51 176.76 19.71 176.76 18.9 176.76 18.1 176.76 17.3 176.76 16.49 176.76 15.69 176.76 14.88 176.76 14.08 176.76 13.28 176.76 12.47 176.76 11.67 176.76 10.86 176.76 10.06 176.76 9.25 176.76 8.45 176.76 7.65 176.76 6.84 176.76 6.04 176.76 5.23 176.76 4.43 176.76 3.63 176.76 2.82 176.76 2.02 176.76 1.98 176.76 1.94 176.76 1.91 176.76 1.87 176.75 1.83 176.75 1.8 176.74 1.76 176.74 1.72 176.73 1.69 176.73 1.65 176.72 1.61 176.71 1.57 176.7 1.53 176.69 1.5 176.68 1.46 176.67 1.42 176.66 1.38 176.64 1.34 176.63 1.31 176.62 1.27 176.6 1.23 176.59 1.2 176.57 1.16 176.55 1.12 176.53 1.08 176.51 1.05 176.49 1.01 176.47 .98 176.45 .94 176.43 .91 176.4 .87 176.38 .84 176.36 .8 176.33 .77 176.31 .74 176.28 .71 176.25 .67 176.22 .64 176.19 .61 176.16 .58 176.13 .55 176.1 .53 176.07 .5 176.04 .47 176 .44 175.97 .42 175.94 .39 175.91 .37 175.87 .34 175.84 .32 175.8 .3 175.77 .28 175.73 .26 175.69 .24 175.66 .22 175.62 .2 175.58 .18 175.54 .17 175.51 .15 175.47 .14 175.43 .12 175.39 .11 175.36 .1 175.32 .08 175.28 .07 175.24 .06 175.21 .05 175.17 .05 175.13 .04 175.09 .03 175.06 .02 175.02 .02 174.98 .01 174.94 0 174.91 0 174.87 0 174.84 0 174.8 0 174.76 0 174.72 0 174.69 0 174.65 0 174.61 0 174.58 0 174.54 0 174.51 .01 174.47 .02 174.43 .02 174.39 .03 174.36 .04 174.32 .05 174.28 .05 174.24 .06 174.2 .07 174.16 .08 174.13 .1 174.09 .11 174.05 .12 174.01 .14 173.98 .15 173.94 .17 173.9 .18 173.86 .2 173.83 .22 173.79 .24 173.76 .26 173.72 .28 173.69 .3 173.65 .32 173.61 .34 173.58 .37 173.55 .39 173.52 .42 173.48 .44 173.45 .47 173.42 .5 173.38 .53 173.36 .55 173.32 .58 173.3 .61 173.27 .64 173.24 .67 173.21 .71 173.18 .74 173.15 .77 173.13 .8 173.11 .84 173.08 .87 173.06 .91 173.04 .94 173.01 .98 172.99 1.01 172.98 1.05 172.95 1.08 172.93 1.12 172.92 1.16 172.9 1.2 172.89 1.23 172.87 1.27 172.85 1.31 172.84 1.34 172.83 1.38 172.82 1.42 172.81 1.46 172.79 1.5 172.78 1.53 172.77 1.57 172.77 1.61 172.76 1.65 172.76 1.69 172.75 1.72 172.74 1.76 172.74 1.8 172.74 1.83 172.73 1.87 172.73 1.91 172.73 1.94 172.73 1.98 172.73 2.02 172.73 2.82 172.73 3.63 172.73 4.43 172.73 5.23 172.73 6.04 172.73 6.84 172.73 7.65 172.73 8.45 172.73 9.25 172.73 10.06 172.73 10.86 172.73 11.67 172.73 12.47 172.73 13.28 172.73 14.08 172.73 14.88 172.73 15.69 172.73 16.49 172.73 17.3 172.73 18.1 172.73 18.9 172.73 19.71 172.73 20.51 172.73 21.32 172.73 22.12 172.73 22.93 172.73 23.73 172.73 24.53 172.73 25.34 172.73 26.14 172.73 26.95 172.73 27.75 172.73 28.55 172.73 29.36 172.73 30.16 172.73 30.97 172.73 31.77 172.73 32.58 172.73 33.38 172.73 34.18 172.73 34.99 172.73 35.79 172.73 36.6 172.73 37.4 172.73 38.2 172.73 39.01 172.73 39.81 172.73 40.62 172.73 41.42 172.73 42.22 172.73 43.03 172.73 43.83 172.73 44.64 172.73 45.44 172.73 46.25 172.73 47.05 172.73 47.85 172.73 48.66 172.73 49.46 172.73 50.27 172.73 51.07 172.73 51.87 172.73 52.68 172.73 53.48 172.73 54.29 172.73 55.09 172.73 55.9 172.73 56.7 172.73 57.5 172.73 58.31 172.73 59.11 172.73 59.92 172.73 60.72 172.73 61.52 172.73 62.33 172.73 63.13 172.73 63.94 172.73 64.74 172.73 65.55 172.73 66.35 172.73 67.15 172.73 67.96 172.73 68.76 172.73 69.57 172.73 70.37 172.73 71.17 172.73 71.98 172.73 72.78 172.73 73.59 172.73 74.39 172.73 75.2 172.73 76 172.73 76.8 172.73 77.61 172.73 78.41 172.73 78.45 172.73 78.48 172.73 78.52 172.73 78.56 172.74 78.59 172.74 78.63 172.74 78.67 172.75 78.71 172.76 78.74 172.76 78.78 172.77 78.82 172.77 78.86 172.78 78.89 172.79 78.93 172.81 78.97 172.82 79.01 172.83 79.05 172.84 79.08 172.85 79.12 172.87 79.16 172.89 79.2 172.9 79.23 172.92 79.27 172.93 79.31 172.95 79.34 172.98 79.38 172.99 79.42 173.01 79.45 173.04 79.49 173.06 79.52 173.08 79.56 173.11 79.59 173.13 79.62 173.15 79.66 173.18 79.69 173.21 79.72 173.24 79.75 173.27 79.79 173.3 79.82 173.32 79.85 173.36 79.87 173.38 79.9 173.42 79.93 173.45 79.96 173.48 79.99 173.52 80.01 173.55 80.04 173.58 80.06 173.61 80.08 173.65 80.11 173.69 80.13 173.72 80.15 173.76 80.17 173.79 80.19 173.83 80.21 173.86 80.23 173.9 80.25 173.94 80.26 173.98 80.28 174.01 80.29 174.05 80.31 174.09 80.32 174.13 80.33 174.16 80.34 174.2 80.36 174.24 80.37 174.28 80.37 174.32 80.38 174.36 80.39 174.39 80.4 174.43 80.4 174.47 80.41 174.51 80.41 174.54 80.42 174.58 80.42 174.61 80.42 174.65 80.43 174.69 80.43 174.72 80.43 174.76 80.43 174.8 80.43 174.84 80.43 174.87 80.42 174.91 80.42 174.94 80.42 174.98 80.41 175.02 80.41 175.06 80.4 175.09 80.4 175.13 80.39 175.17 80.38 175.21 80.37 175.24 80.37 175.28 80.36 175.32 80.34 175.36 80.33 175.39 80.32 175.43 80.31 175.47 80.29 175.51 80.28 175.54 80.26 175.58 80.25 175.62 80.23 175.66 80.21 175.69 80.19 175.73 80.17 175.77 80.15 175.8 80.13 175.84 80.11 175.87 80.08 175.91 80.06 175.94 80.04 175.97 80.01 176 79.99 176.04 79.96 176.07 79.93 176.1 79.9 176.13 79.87 176.16 79.85 176.19 79.82 176.22 79.79 176.25 79.75 176.28 79.72 176.31 79.69 176.33 79.66 176.36 79.62 176.38 79.59 176.4 79.56 176.43 79.52 176.45 79.49 176.47 79.45 176.49 79.42 176.51 79.38 176.53 79.34 176.55 79.31 176.57 79.27 176.59 79.23 176.6 79.2 176.62 79.16 176.63 79.12 176.64 79.08 176.66 79.05 176.67 79.01 176.68 78.97 176.69 78.93 176.7 78.89 176.71 78.86 176.72 78.82 176.73 78.78 176.73 78.74 176.74 78.71 176.74 78.67 176.75 78.63 176.75 78.59 176.76 78.56 176.76 78.52 176.76 78.48 176.76 78.45 176.76 78.41"/>
      </g>
      <g>
        <g>
          <g>
            <path class="cls-1" d="m7.92,23.96c-2.65,0-4.64-.66-5.95-1.99-1.32-1.33-1.97-3.14-1.97-5.44v-1.77h4.88v1.65c0,1.16.24,1.98.71,2.45.48.48,1.15.71,2.02.71s1.54-.25,1.96-.76c.41-.51.62-1.23.62-2.16V.4h5.31v16.38c0,1.95-.49,3.5-1.46,4.66-.62.79-1.45,1.4-2.47,1.85-1.03.44-2.24.67-3.65.67Z"/>
            <path class="cls-1" d="m30.02,24.08c-1.76,0-3.35-.3-4.75-.9-1.41-.6-2.61-1.44-3.6-2.52-.99-1.08-1.76-2.35-2.28-3.82-.53-1.47-.79-3.07-.79-4.79s.26-3.35.79-4.82c.53-1.47,1.29-2.74,2.28-3.81.99-1.07,2.2-1.91,3.6-2.52,1.41-.61,2.99-.92,4.75-.92s3.31.31,4.72.92c1.41.61,2.61,1.45,3.6,2.52.99,1.07,1.76,2.34,2.28,3.81.53,1.47.79,3.08.79,4.82s-.26,3.31-.79,4.79c-.53,1.47-1.29,2.75-2.28,3.82-.99,1.08-2.2,1.92-3.6,2.52-1.41.6-2.98.9-4.72.9Zm.03-4.35c.99,0,1.86-.2,2.61-.59.75-.39,1.37-.93,1.86-1.62.5-.68.87-1.49,1.12-2.42.25-.93.37-1.95.37-3.04s-.12-2.12-.37-3.06c-.25-.94-.62-1.77-1.12-2.47-.5-.7-1.12-1.25-1.86-1.65-.75-.39-1.62-.59-2.61-.59s-1.87.2-2.63.59c-.76.39-1.39.94-1.9,1.65-.51.7-.89,1.53-1.15,2.47-.26.94-.39,1.96-.39,3.06s.13,2.11.39,3.04c.26.93.64,1.74,1.15,2.42.51.68,1.14,1.22,1.9,1.62.76.39,1.63.59,2.63.59Z"/>
            <path class="cls-1" d="m54.1,23.96c-3.15,0-5.54-.73-7.16-2.19-1.63-1.46-2.44-3.56-2.44-6.29V.4h5.28v15.19c0,1.26.35,2.26,1.04,2.98.69.73,1.79,1.09,3.28,1.09,1.39,0,2.43-.38,3.14-1.13.7-.76,1.06-1.77,1.06-3.03V.4h5.31v15.07c0,2.71-.81,4.81-2.42,6.28-1.62,1.47-3.98,2.21-7.08,2.21Z"/>
            <path class="cls-1" d="m76.84,15.13h-3.85v8.39h-5.38V.4h10.47c2.73,0,4.81.71,6.21,2.14.7.68,1.25,1.47,1.63,2.36.38.89.57,1.9.57,3.01,0,1.55-.39,2.89-1.17,4.01-.78,1.12-1.85,1.95-3.22,2.49l5.41,9.1h-5.97l-4.72-8.39Zm-3.85-4.19h4.75c1.12,0,1.97-.25,2.56-.76.59-.51.89-1.26.89-2.25s-.3-1.74-.9-2.25c-.6-.51-1.45-.76-2.55-.76h-4.75v6.03Z"/>
            <path class="cls-1" d="m90.23.4h5.41l6.09,10.04c.35.6.71,1.25,1.07,1.94.36.69.7,1.35,1.01,1.97l1.09,2.17h.06c-.06-.79-.11-1.58-.16-2.39-.04-.68-.07-1.42-.09-2.21-.02-.79-.03-1.51-.03-2.17V.4h5.07v23.12h-5.44l-6.03-9.91c-.35-.58-.71-1.23-1.09-1.96-.37-.72-.71-1.4-1.03-2.02-.37-.72-.74-1.46-1.09-2.21h-.06c.04.81.08,1.62.12,2.42.04.68.08,1.42.11,2.21.03.79.05,1.51.05,2.17v9.29h-5.06V.4Z"/>
            <path class="cls-1" d="m120.68.4h5.5l8.36,23.12h-5.59l-1.46-4.41h-8.39l-1.43,4.41h-5.31L120.68.4Zm-.34,14.91h5.94l-1.4-4.32c-.25-.79-.47-1.55-.65-2.28-.19-.74-.34-1.39-.47-1.97-.15-.68-.27-1.31-.37-1.9h-.06c-.17.77-.33,1.51-.5,2.24-.17.62-.34,1.29-.51,2-.18.71-.36,1.35-.54,1.91l-1.43,4.32Z"/>
            <path class="cls-1" d="m137.25.4h5.28v18.58h10.66v4.54h-15.94V.4Z"/>
          </g>
          <g>
            <path class="cls-1" d="m9.1,52.42c-1.35,0-2.57-.15-3.65-.46-1.08-.31-2.01-.75-2.78-1.32-.77-.58-1.37-1.29-1.8-2.15-.42-.86-.65-1.82-.69-2.91h4.65c.13,1.1.54,1.9,1.26,2.41.71.5,1.72.76,3.01.76.45,0,.88-.04,1.3-.13.41-.09.78-.23,1.11-.42.32-.19.58-.43.77-.73s.28-.65.28-1.07-.1-.79-.31-1.08c-.21-.29-.51-.53-.91-.73-.4-.2-.88-.37-1.46-.53-.58-.15-1.23-.31-1.95-.47-.97-.22-1.89-.46-2.76-.73-.86-.27-1.62-.63-2.27-1.07-.65-.44-1.16-1-1.53-1.68-.37-.68-.55-1.54-.55-2.58s.2-1.95.59-2.7c.4-.76.95-1.38,1.65-1.88s1.53-.87,2.49-1.11c.96-.24,1.99-.36,3.11-.36s2.12.13,3.06.38c.94.25,1.75.63,2.43,1.14.68.5,1.23,1.13,1.65,1.88.41.75.66,1.62.73,2.61h-4.51c-.13-.79-.49-1.41-1.08-1.84-.59-.43-1.4-.65-2.41-.65-.96,0-1.72.19-2.3.57-.58.38-.87.88-.87,1.51,0,.4.11.72.32.97.22.25.53.47.95.66.41.19.92.36,1.53.5.6.14,1.3.31,2.1.49.9.2,1.77.44,2.61.72.84.28,1.58.65,2.22,1.12.64.47,1.15,1.05,1.54,1.76s.58,1.59.58,2.65-.21,1.97-.62,2.77c-.41.8-.99,1.48-1.72,2.03s-1.59.97-2.57,1.26c-.98.29-2.05.43-3.2.43Z"/>
            <path class="cls-1" d="m18.54,31.82h16.6v3.92h-6v16.19h-4.62v-16.19h-5.97v-3.92Z"/>
            <path class="cls-1" d="m41.27,31.82h4.79l7.27,20.11h-4.87l-1.27-3.84h-7.3l-1.24,3.84h-4.62l7.25-20.11Zm-.3,12.98h5.16l-1.22-3.76c-.22-.68-.41-1.35-.57-1.99-.16-.64-.3-1.21-.41-1.72-.13-.59-.23-1.14-.32-1.65h-.05c-.14.67-.29,1.32-.43,1.95-.14.54-.29,1.12-.45,1.74-.15.62-.31,1.18-.47,1.66l-1.24,3.76Z"/>
            <path class="cls-1" d="m55.68,31.82h4.7l5.3,8.73c.31.52.62,1.09.93,1.69.31.6.61,1.18.88,1.72l.95,1.89h.05c-.05-.68-.1-1.38-.14-2.08-.04-.59-.06-1.23-.08-1.92-.02-.68-.03-1.32-.03-1.89v-8.14h4.41v20.11h-4.73l-5.24-8.62c-.31-.5-.62-1.07-.95-1.7-.32-.63-.62-1.22-.89-1.76-.32-.63-.64-1.27-.95-1.92h-.05c.04.7.07,1.41.11,2.11.04.59.07,1.23.09,1.92.03.69.04,1.32.04,1.89v8.08h-4.41v-20.11Z"/>
            <path class="cls-1" d="m76.42,31.82h8.38c1.41,0,2.68.24,3.83.73,1.14.49,2.12,1.17,2.93,2.05.81.88,1.43,1.96,1.87,3.22.43,1.26.65,2.66.65,4.19s-.21,2.85-.62,4.07c-.42,1.22-1.03,2.26-1.84,3.12-.81.87-1.81,1.54-3,2.01-1.19.48-2.55.72-4.08.72h-8.11v-20.11Zm7.76,16.22c1.75,0,3.05-.52,3.91-1.57.86-1.04,1.28-2.53,1.28-4.46s-.43-3.44-1.28-4.58c-.86-1.14-2.13-1.72-3.83-1.72h-3.22v12.33h3.14Z"/>
            <path class="cls-1" d="m101.51,31.82h4.79l7.27,20.11h-4.87l-1.27-3.84h-7.3l-1.24,3.84h-4.62l7.25-20.11Zm-.3,12.98h5.16l-1.22-3.76c-.22-.68-.41-1.35-.57-1.99-.16-.64-.3-1.21-.41-1.72-.13-.59-.23-1.14-.32-1.65h-.05c-.14.67-.29,1.32-.43,1.95-.14.54-.29,1.12-.45,1.74-.15.62-.31,1.18-.47,1.66l-1.24,3.76Z"/>
            <path class="cls-1" d="m123.94,44.63h-3.35v7.3h-4.68v-20.11h9.11c2.38,0,4.18.62,5.41,1.87.61.59,1.09,1.28,1.42,2.05.33.78.5,1.65.5,2.62,0,1.35-.34,2.51-1.01,3.49-.68.97-1.61,1.69-2.8,2.16l4.7,7.92h-5.19l-4.11-7.3Zm-3.35-3.65h4.14c.97,0,1.72-.22,2.23-.66.51-.44.77-1.09.77-1.96s-.26-1.52-.78-1.96c-.52-.44-1.26-.66-2.22-.66h-4.14v5.24Z"/>
            <path class="cls-1" d="m135.65,31.82h8.38c1.41,0,2.68.24,3.83.73,1.14.49,2.12,1.17,2.93,2.05.81.88,1.43,1.96,1.87,3.22.43,1.26.65,2.66.65,4.19s-.21,2.85-.62,4.07c-.42,1.22-1.03,2.26-1.84,3.12-.81.87-1.81,1.54-3,2.01-1.19.48-2.55.72-4.08.72h-8.11v-20.11Zm7.76,16.22c1.75,0,3.05-.52,3.91-1.57.86-1.04,1.28-2.53,1.28-4.46s-.43-3.44-1.28-4.58c-.86-1.14-2.13-1.72-3.83-1.72h-3.22v12.33h3.14Z"/>
          </g>
        </g>
        <g>
          <path class="cls-1" d="m0,61.2h14.39v3.71H4.48v4.14h8.27v3.55H4.48v7.62H0v-19.02Z"/>
          <path class="cls-1" d="m16.89,73.6v-12.4h4.48v12.5c0,2.07,1.13,3.35,3.66,3.35,2.34,0,3.56-1.36,3.56-3.43v-12.43h4.51v12.4c0,4.42-2.82,6.98-8.06,6.98s-8.14-2.51-8.14-6.98Z"/>
          <path class="cls-1" d="m44.26,73.32h-3.27v6.9h-4.56v-19.02h8.88c2.34,0,4.08.59,5.27,1.76,1.19,1.13,1.87,2.58,1.87,4.42,0,2.53-1.42,4.45-3.72,5.34l4.58,7.49h-5.06l-4-6.9Zm-3.27-3.45h4.03c1.87,0,2.92-.87,2.92-2.48s-1.08-2.48-2.92-2.48h-4.03v4.96Z"/>
          <path class="cls-1" d="m55.33,61.2h4.58l5.16,8.26c1.16,1.92,2.69,5.01,2.69,5.01h.05s-.24-3.4-.24-5.57v-7.7h4.29v19.02h-4.61l-5.11-8.16c-1.19-1.92-2.71-5.09-2.71-5.09h-.05s.24,3.43.24,5.6v7.65h-4.29v-19.02Z"/>
          <path class="cls-1" d="m75.38,61.2h4.51v19.02h-4.51v-19.02Z"/>
          <path class="cls-1" d="m82.41,61.2h16.18v3.71h-5.85v15.32h-4.51v-15.32h-5.82v-3.71Z"/>
          <path class="cls-1" d="m100.51,73.6v-12.4h4.48v12.5c0,2.07,1.13,3.35,3.66,3.35,2.34,0,3.56-1.36,3.56-3.43v-12.43h4.51v12.4c0,4.42-2.82,6.98-8.06,6.98s-8.14-2.51-8.14-6.98Z"/>
          <path class="cls-1" d="m127.36,73.32h-3.27v6.9h-4.56v-19.02h8.88c2.34,0,4.08.59,5.27,1.76,1.19,1.13,1.87,2.58,1.87,4.42,0,2.53-1.42,4.45-3.72,5.34l4.58,7.49h-5.06l-4-6.9Zm-3.27-3.45h4.03c1.87,0,2.92-.87,2.92-2.48s-1.08-2.48-2.92-2.48h-4.03v4.96Z"/>
          <path class="cls-1" d="m138.42,61.2h14.7v3.63h-10.22v3.78h8.85v3.45h-8.85v4.42h10.41v3.73h-14.89v-19.02Z"/>
        </g>
      </g>
    </g>
  </g>
</svg>