<?xml version="1.0" encoding="UTF-8"?>
<svg id="_图层_2" data-name="图层 2" xmlns="http://www.w3.org/2000/svg" viewBox="0 0 25.95 18.24">
  <defs>
    <style>
      .cls-1 {
        fill: #fff;
        stroke-width: 0px;
      }
    </style>
  </defs>
  <g id="_图层_1-2" data-name="图层 1">
    <path class="cls-1" d="m4.1,18.23c5.95.03,11.89,0,17.84.01,2.14,0,4-1.9,4-3.98,0-3.51-.01-7.02,0-10.53,0-.47-.13-.88-.26-1.31C25.26,1.1,23.84.01,22.47,0c-3.17,0-6.33,0-9.5,0S6.81.02,3.73,0c-.68,0-1.26.12-1.85.5C.73,1.24,0,2.17,0,3.59,0,7.31,0,11.04,0,14.76c0,.42.05.79.25,1.18.81,1.57,2.15,2.28,3.84,2.28Zm6.18-9.48c0-1.5,0-2.99,0-4.49,0-.13.1-.29.19-.39.03-.03.22.06.31.13,1.64,1.09,3.21,2.28,4.94,3.22.56.3.94.9,1.62,1.05.04,0,.08.33.01.41-.19.22-.41.43-.66.57-1.95,1.06-3.68,2.44-5.55,3.61-.17.1-.39.15-.52.28-.3.3-.37.22-.37-.16,0-1.41,0-2.82,0-4.23Z"/>
  </g>
</svg>