<?xml version="1.0" encoding="UTF-8"?>
<svg id="_图层_2" data-name="图层 2" xmlns="http://www.w3.org/2000/svg" viewBox="0 0 23.92 26">
  <defs>
    <style>
      .cls-1 {
        stroke-width: 0px;
      }
    </style>
  </defs>
  <g id="_图层_1-2" data-name="图层 1">
    <path class="cls-1" d="m23.65,12.27L12.71.33c-.4-.44-1.09-.44-1.49,0L.27,12.27c-.59.65-.13,1.69.75,1.69h1.29v10.7c0,.74.57,1.34,1.28,1.34h4.19c.71,0,1.28-.6,1.28-1.34v-5.15c0-.47.36-.85.81-.85h4.19c.45,0,.81.38.81.85v5.15c0,.74.57,1.34,1.28,1.34h4.19c.71,0,1.28-.6,1.28-1.34v-10.7h1.29c.88,0,1.34-1.05.75-1.69Z"/>
  </g>
</svg>