<?xml version="1.0" encoding="UTF-8"?>
<svg id="_图层_2" data-name="图层 2" xmlns="http://www.w3.org/2000/svg" viewBox="0 0 11.5 24.52">
  <defs>
    <style>
      .cls-1 {
        stroke-width: 0px;
      }
    </style>
  </defs>
  <g id="_图层_1-2" data-name="图层 1">
    <path class="cls-1" d="m11.1,0c-1.34.02-2.67.04-4.01,0-.86-.03-1.63.24-2.35.61-1.34.67-2.02,1.86-2.12,3.31-.09,1.22-.03,2.45-.01,3.68,0,.3-.03.46-.39.44-.61-.03-1.23,0-1.84-.01-.26,0-.39.04-.38.34.02,1.12,0,2.24.01,3.36,0,.13.02.28.09.39.06.09.24.2.29.17.51-.31,1.05-.09,1.57-.13.47-.03.63.16.64.62.01.76,0,1.52,0,2.27,0,3,0,5.99-.01,8.99,0,.39.09.48.48.47,1.37-.03,2.74-.02,4.11,0,.34,0,.41-.11.41-.43-.01-1.91,0-3.83,0-5.74s.02-3.83-.01-5.74c0-.41.12-.48.49-.47.9.03,1.8.02,2.71,0,.1,0,.27-.12.28-.2.09-.83.16-1.67.22-2.51.02-.32-.03-.65.02-.97.03-.22.37-.46-.21-.44-1.04.05-2.09,0-3.14.02-.3,0-.35-.11-.35-.38.01-.76,0-1.52,0-2.27,0-.72.31-1.03,1.01-1.04.76,0,1.52,0,2.27,0,.45,0,.61-.18.62-.65,0-1.08,0-2.17,0-3.25,0-.3-.04-.45-.4-.44Z"/>
  </g>
</svg>