<?xml version="1.0" encoding="UTF-8"?>
<svg id="_图层_2" data-name="图层 2" xmlns="http://www.w3.org/2000/svg" viewBox="0 0 24.19 24.21">
  <defs>
    <style>
      .cls-1 {
        fill: #fff;
        stroke-width: 0px;
      }
    </style>
  </defs>
  <g id="_图层_1-2" data-name="图层 1">
    <g>
      <path class="cls-1" d="m18.96,7.07s.39,0,.56-.18c.29-.31.44-.73.65-1.11-.37-.25-.17-.77-.56-1.06-.35-.26-.62-.5-1.1-.46-.83.06-1.36.59-1.39,1.45-.01.42.16.69.42,1,.33.4.71.39,1.41.37Z"/>
      <path class="cls-1" d="m16.58,7.8c-1.23-1.27-2.75-1.87-4.48-1.88-3.31-.03-6.22,2.9-6.2,6.2.01,1.7.67,3.17,1.82,4.39,1.14,1.21,2.57,1.8,4.27,1.84,1.75.04,3.19-.54,4.43-1.75,1.27-1.23,1.98-2.68,1.9-4.47.08-1.71-.56-3.12-1.74-4.33Zm-1.09,6.59c-.33.67-1.04.95-1.6,1.36-.53.39-1.24.12-1.79.47-1.02-.3-2.04-.54-2.82-1.39-.8-.87-1.08-1.81-1.07-2.96.01-1.07.47-1.85,1.18-2.56.76-.76,1.62-1.2,2.75-1.04,1.17-.26,2.1.4,2.88,1.09.81.7,1.13,1.78,1.18,2.87.04.8-.37,1.48-.71,2.16Z"/>
      <path class="cls-1" d="m19.36,23.77c.88-.23,1.6-.62,2.36-1.14.8-.54,1.28-1.27,1.65-2.03.56-1.16.86-2.43.82-3.76-.05-1.56-.01-3.12-.01-4.68s-.04-3.05.01-4.57c.04-1.07-.17-2.08-.49-3.08-.5-1.58-1.6-2.68-2.97-3.52-1.17-.72-2.52-.83-3.83-.91-1.75-.12-3.51-.07-5.27-.02-1.76.05-3.52-.12-5.3.18-1.26.22-2.44.47-3.49,1.22-1,.71-1.73,1.6-2.13,2.79C.28,5.52.04,6.84.05,8.17c.03,3.32-.22,6.65.18,9.98.11.94.36,1.83.77,2.61.46.9,1.16,1.71,2.05,2.26,1.17.72,2.48,1.14,3.84,1.16,3.47.05,6.95.03,10.42,0,.69,0,1.37-.24,2.04-.41Zm-9.74-1.68c-1.15,0-2.26-.35-3.42-.26-.43.03-.92-.22-1.33-.43-.49-.25-1.02-.52-1.36-.92-.39-.45-.69-1.04-.87-1.62-.19-.6-.24-1.26-.25-1.89-.02-3.32,0-6.64-.01-9.96,0-.8.2-1.54.56-2.23.56-1.07,1.44-1.77,2.59-2.16.47-.16.94-.23,1.43-.23,1.72.01,3.44,0,5.16,0s3.59,0,5.39,0c.72,0,1.39.22,2.03.48,1.06.44,1.67,1.31,2.06,2.36.1.27.19.55.23.84.04.31-.06.64.02.93.4,1.44.18,2.91.21,4.36.04,1.48.09,2.98-.02,4.45-.08,1.03-.12,2.08-.43,3.09-.43,1.38-1.31,2.27-2.68,2.72-.43.14-.85.26-1.31.23-1.34-.08-2.65.34-4.01.25-1.32-.08-2.66-.02-3.98-.02Z"/>
    </g>
  </g>
</svg>