<?xml version="1.0" encoding="UTF-8"?>
<svg id="_图层_2" data-name="图层 2" xmlns="http://www.w3.org/2000/svg" viewBox="0 0 20.22 19.24">
  <defs>
    <style>
      .cls-1 {
        fill: #fff;
      }

      .cls-1, .cls-2 {
        stroke-width: 0px;
      }

      .cls-2 {
        fill: #00ba00;
      }
    </style>
  </defs>
  <g id="_图层_1-2" data-name="图层 1">
    <g>
      <path class="cls-1" d="m10.11.02c.19,0,.38,0,.58,0,.2,0,.4.03.6.05.17.02.34.04.51.06.33.04.66.1.99.18.66.15,1.3.35,1.93.61.76.32,1.48.71,2.15,1.2.46.33.89.7,1.28,1.11.47.5.88,1.04,1.21,1.64.34.62.59,1.27.74,1.96.09.44.14.88.14,1.33,0,.54-.05,1.07-.18,1.6-.11.45-.26.88-.46,1.29-.36.75-.83,1.41-1.37,2.03-.3.35-.62.69-.95,1-.37.35-.75.69-1.14,1.01-.79.66-1.62,1.27-2.47,1.86-.91.63-1.83,1.23-2.79,1.77-.29.16-.58.32-.89.44-.13.05-.27.08-.42.08-.2,0-.32-.12-.33-.33,0-.1,0-.21.02-.31.05-.3.1-.6.15-.91.03-.23.05-.45.03-.68-.02-.25-.15-.42-.37-.54-.22-.11-.46-.18-.71-.22-.43-.06-.85-.14-1.27-.25-.66-.17-1.31-.39-1.93-.68-.88-.4-1.69-.91-2.42-1.55-.57-.49-1.06-1.04-1.48-1.67-.47-.7-.81-1.45-1.02-2.27-.1-.39-.16-.79-.19-1.19-.05-.83.03-1.64.28-2.44.27-.87.69-1.66,1.25-2.38.27-.35.56-.67.88-.97.49-.46,1.03-.87,1.6-1.22.57-.35,1.16-.64,1.78-.87.57-.22,1.15-.39,1.75-.51.34-.07.67-.13,1.01-.17.18-.02.37-.04.55-.05.33-.02.66-.03.99-.05v.02Zm-.06,8.03s.04.04.05.05c.2.27.4.54.6.81.45.6.89,1.2,1.34,1.8.05.07.12.11.21.11.22,0,.44,0,.66,0,.15,0,.23-.08.24-.23,0-.02,0-.04,0-.05,0-1.42,0-2.84,0-4.25,0-.03,0-.07,0-.1-.02-.09-.08-.15-.17-.17-.03,0-.07,0-.1,0-.19,0-.39,0-.58,0-.03,0-.07,0-.1,0-.09.02-.15.08-.16.17,0,.04,0,.08,0,.13,0,.78,0,1.56,0,2.34v.1s-.01,0-.02,0c-.02-.03-.05-.06-.07-.1-.62-.84-1.25-1.68-1.87-2.52-.07-.1-.15-.14-.27-.14-.2,0-.4,0-.59,0-.03,0-.07,0-.1.01-.09.02-.14.08-.15.16,0,.04,0,.08,0,.12,0,1.42,0,2.84,0,4.26,0,.03,0,.06,0,.09.01.08.06.14.14.16.03,0,.07.01.11.01.2,0,.41,0,.61,0,.03,0,.07,0,.1-.01.09-.02.15-.09.15-.18,0-.03,0-.07,0-.1,0-.78,0-1.57,0-2.35,0-.03,0-.07,0-.12Zm4.9,1.65c-.02-.09-.02-.64,0-.72.04,0,.08,0,.11,0,.56,0,1.12,0,1.68,0,.04,0,.09,0,.13,0,.11-.01.18-.09.18-.19,0-.24,0-.48,0-.72,0-.11-.09-.19-.2-.2-.03,0-.05,0-.08,0-.58,0-1.15,0-1.73,0-.04,0-.07,0-.11,0v-.72s.08,0,.11,0c.59,0,1.18,0,1.77,0,.16,0,.23-.08.24-.24,0-.22,0-.43,0-.65,0-.14-.07-.21-.2-.23-.03,0-.05,0-.08,0-.89,0-1.78,0-2.68,0-.19,0-.29.08-.29.29,0,1.42,0,2.84,0,4.25,0,.03,0,.07,0,.1.01.08.06.14.14.16.04.01.08.02.13.02.9,0,1.8,0,2.7,0,.04,0,.07,0,.11-.01.1-.02.16-.09.16-.19,0-.24,0-.48,0-.72,0-.11-.09-.19-.2-.19-.03,0-.06,0-.09,0-.57,0-1.14,0-1.71,0h-.1Zm-10.53,0v-.14c0-1.08,0-2.16,0-3.24,0-.04,0-.08,0-.12,0-.1-.07-.17-.17-.19-.02,0-.05,0-.07,0-.21,0-.42,0-.63,0-.02,0-.04,0-.06,0-.11.02-.17.09-.18.19,0,.03,0,.07,0,.1,0,1.41,0,2.83,0,4.24,0,.02,0,.05,0,.07,0,.1.06.17.16.19.04,0,.07.01.11.01.9,0,1.8,0,2.7,0,.02,0,.04,0,.06,0,.13-.01.21-.09.21-.22,0-.11,0-.21,0-.32,0-.12,0-.24,0-.36,0-.13-.1-.22-.22-.22-.03,0-.05,0-.08,0-.57,0-1.13,0-1.7,0h-.13Zm2.71-1.29c0,.7,0,1.41,0,2.11,0,.03,0,.07,0,.1,0,.1.06.17.16.19.04,0,.07.01.11.01.19,0,.38,0,.58,0,.04,0,.08,0,.12-.01.08-.02.14-.08.15-.16,0-.05,0-.1,0-.15,0-1.38,0-2.76,0-4.14,0-.03,0-.05,0-.08,0-.18-.08-.25-.26-.26,0,0-.02,0-.03,0-.19,0-.38,0-.57,0-.03,0-.07,0-.1.01-.1.02-.16.08-.17.19,0,.03,0,.07,0,.1,0,.7,0,1.41,0,2.11Z"/>
      <path class="cls-2" d="m10.06,8.05c0,.05,0,.09,0,.12,0,.78,0,1.57,0,2.35,0,.03,0,.07,0,.1,0,.09-.07.16-.15.18-.03,0-.07.01-.1.01-.2,0-.41,0-.61,0-.04,0-.07,0-.11-.01-.08-.02-.13-.08-.14-.16,0-.03,0-.06,0-.09,0-1.42,0-2.84,0-4.26,0-.04,0-.08,0-.12.02-.09.07-.14.15-.16.03,0,.07-.01.1-.01.2,0,.4,0,.59,0,.12,0,.2.04.27.14.62.84,1.25,1.68,1.87,2.52.02.03.05.07.07.1,0,0,.01,0,.02,0v-.1c0-.78,0-1.56,0-2.34,0-.04,0-.09,0-.13.01-.09.07-.15.16-.17.03,0,.07,0,.1,0,.19,0,.39,0,.58,0,.03,0,.07,0,.1,0,.09.02.15.08.17.17,0,.03,0,.07,0,.1,0,1.42,0,2.84,0,4.25,0,.02,0,.04,0,.05,0,.15-.09.23-.24.23-.22,0-.44,0-.66,0-.09,0-.16-.04-.21-.11-.45-.6-.89-1.2-1.34-1.8-.2-.27-.4-.54-.6-.81,0-.01-.02-.02-.05-.05Z"/>
      <path class="cls-2" d="m14.95,9.7h.1c.57,0,1.14,0,1.71,0,.03,0,.06,0,.09,0,.11,0,.2.08.2.19,0,.24,0,.48,0,.72,0,.1-.07.17-.16.19-.04,0-.07.01-.11.01-.9,0-1.8,0-2.7,0-.04,0-.09,0-.13-.02-.08-.02-.13-.08-.14-.16,0-.03,0-.07,0-.1,0-1.42,0-2.84,0-4.25,0-.21.09-.29.29-.29.89,0,1.78,0,2.68,0,.03,0,.05,0,.08,0,.14.02.2.09.2.23,0,.22,0,.43,0,.65,0,.16-.08.24-.24.24-.59,0-1.18,0-1.77,0-.04,0-.07,0-.11,0v.72s.07,0,.11,0c.58,0,1.15,0,1.73,0,.03,0,.05,0,.08,0,.11,0,.2.08.2.2,0,.24,0,.48,0,.72,0,.11-.08.18-.18.19-.04,0-.09,0-.13,0-.56,0-1.12,0-1.68,0-.04,0-.08,0-.11,0-.02.08-.02.63,0,.72Z"/>
      <path class="cls-2" d="m4.43,9.7h.13c.57,0,1.13,0,1.7,0,.03,0,.05,0,.08,0,.12,0,.22.09.22.22,0,.12,0,.24,0,.36,0,.11,0,.21,0,.32,0,.13-.08.21-.21.22-.02,0-.04,0-.06,0-.9,0-1.8,0-2.7,0-.04,0-.07,0-.11-.01-.1-.02-.16-.09-.16-.19,0-.02,0-.05,0-.07,0-1.41,0-2.83,0-4.24,0-.03,0-.07,0-.1,0-.11.07-.18.18-.19.02,0,.04,0,.06,0,.21,0,.42,0,.63,0,.02,0,.05,0,.07,0,.1.02.16.09.17.19,0,.04,0,.08,0,.12,0,1.08,0,2.16,0,3.24v.14Z"/>
      <path class="cls-2" d="m7.14,8.41c0-.7,0-1.41,0-2.11,0-.03,0-.07,0-.1,0-.1.07-.17.17-.19.03,0,.07,0,.1-.01.19,0,.38,0,.57,0,0,0,.02,0,.03,0,.18,0,.25.08.26.26,0,.03,0,.05,0,.08,0,1.38,0,2.76,0,4.14,0,.05,0,.1,0,.15-.01.09-.07.14-.15.16-.04,0-.08.01-.12.01-.19,0-.38,0-.58,0-.04,0-.07,0-.11-.01-.1-.02-.16-.09-.16-.19,0-.03,0-.07,0-.1,0-.7,0-1.41,0-2.11Z"/>
    </g>
  </g>
</svg>