<?xml version="1.0" encoding="UTF-8"?>
<svg id="_图层_2" data-name="图层 2" xmlns="http://www.w3.org/2000/svg" viewBox="0 0 263.11 50.5">
  <defs>
    <style>
      .cls-1, .cls-2, .cls-3, .cls-4, .cls-5, .cls-6 {
        stroke-width: 0px;
      }

      .cls-2 {
        fill: #bbf117;
      }

      .cls-3 {
        fill: #fff;
      }

      .cls-4 {
        fill: #fb2a79;
      }

      .cls-5 {
        fill: #ffe600;
      }

      .cls-6 {
        fill: #1ad4ff;
      }
    </style>
  </defs>
  <g id="_图层_1-2" data-name="图层 1">
    <g>
      <path class="cls-2" d="m44.3,22.59c-3.01,0-5.34-1.59-6.2-2.28l-.36-.29V4.89l1.51,1.1c4.89,3.57,8.22,8.77,9.38,14.64l.14.73-.67.32c-1.27.61-2.55.92-3.81.92Z"/>
      <path class="cls-4" d="m18.14,33.05c-2.99,0-5.31-1.58-6.16-2.26l-.36-.29V5.69l.42-.28c3.37-2.25,7.31-3.61,11.39-3.92l1.02-.08v29.08l-.35.29c-1.86,1.5-3.87,2.26-5.96,2.26Z"/>
      <path class="cls-5" d="m31.2,27.96c-2.86,0-5.07-1.39-6.13-2.22l-.37-.29V1.41l.97.02c4,.07,7.94,1.16,11.41,3.15l.48.27v20.53l-.35.29c-1.87,1.52-3.89,2.29-6,2.29Z"/>
      <path class="cls-3" d="m25.25,49.09c-7.34,0-14.17-3.34-18.74-9.15l-.95-1.21,1.5-.31c2.72-.57,4.4-2.05,4.47-2.12v-5.43s1.45.86,1.45.86c1.73,1.03,3.5,1.56,5.25,1.56,2.26,0,4.43-.89,6.45-2.65l.04-3.19v-1.66l1.44.84c1.7.99,3.42,1.5,5.14,1.5,2.25,0,4.41-.89,6.42-2.65l.03-3.44v-1.68l1.44.86c1.72,1.02,3.47,1.54,5.2,1.54,1.12,0,2.22-.22,3.29-.66l1.18-.48.13,1.27c.08.8.12,1.59.12,2.36,0,13.15-10.7,23.84-23.84,23.84Z"/>
      <path class="cls-6" d="m5.13,37.99c-2.43-3.83-3.72-8.24-3.72-12.74,0-6.96,3.06-13.57,8.38-18.12l1.57-1.34v30.45l-.38.29c-.64.49-2.42,1.66-4.96,1.9l-.58.05-.31-.49Z"/>
      <path class="cls-1" d="m49.71,19.08C46.95,8.13,37.06,0,25.25,0,11.3,0,0,11.3,0,25.25c0,4.35,1.1,8.45,3.04,12.02.43.79.9,1.55,1.41,2.28,4.55,6.61,12.17,10.95,20.8,10.95,13.94,0,25.25-11.3,25.25-25.25,0-1.19-.11-2.35-.27-3.49-.13-.91-.3-1.8-.52-2.67Zm-11.01-12.32c4.57,3.33,7.87,8.3,9.01,14.05-1.1.53-2.23.82-3.4.82-2.71,0-4.81-1.44-5.61-2.07V6.76Zm-13.03-4.38c3.98.07,7.71,1.16,10.95,3.03v19.53c-1.7,1.38-3.52,2.07-5.4,2.07-2.65,0-4.71-1.37-5.54-2.02V2.38Zm-13.09,3.82c3.18-2.12,6.91-3.45,10.94-3.76v27.59c-1.69,1.36-3.5,2.05-5.37,2.05-2.68,0-4.77-1.41-5.57-2.05V6.2ZM2.36,25.25c0-6.96,3.13-13.19,8.05-17.4v27.91c-.63.48-2.22,1.49-4.48,1.71-2.25-3.54-3.57-7.73-3.57-12.23Zm22.89,22.89c-7.3,0-13.8-3.45-17.99-8.79,3.02-.63,4.89-2.32,4.91-2.34.2-.19.32-.47.32-.75v-3.7c1.34.8,3.35,1.69,5.74,1.69s4.87-.97,7.07-2.89c.23-.2.37-.5.37-.81v-3.1c1.33.78,3.3,1.63,5.62,1.63,2.48,0,4.86-.97,7.05-2.88.23-.2.36-.48.36-.78v-3.38c1.34.79,3.33,1.68,5.69,1.68,1.25,0,2.46-.24,3.65-.73.07.75.11,1.5.11,2.27,0,12.62-10.27,22.89-22.89,22.89Z"/>
      <path class="cls-1" d="m69.6,42.71V7.81c0-.9.6-1.68,1.5-1.87.9-.18,1.75.24,2.17,1.02,1.02,2.23,2.05,4.39,3.07,6.5,1.68,3.61,3.61,7.82,4.81,10.29,1.14-2.47,3.07-6.74,4.81-10.29,1.02-2.1,2.05-4.27,3.07-6.5.42-.78,1.26-1.21,2.17-1.02.9.18,1.5.96,1.5,1.87v34.89c0,1.14-.9,1.93-1.93,1.93-1.14,0-1.93-.78-1.93-1.93v-26.29c-1.44,3.07-2.89,6.2-4.03,8.6-.66,1.38-1.32,2.77-1.93,4.09-.42.72-.96,1.08-1.74,1.08-.84,0-1.44-.36-1.74-1.08-.6-1.32-1.26-2.71-1.93-4.09-1.14-2.41-2.65-5.53-4.03-8.6v26.29c0,1.14-.9,1.93-1.93,1.93-1.14,0-1.93-.78-1.93-1.93Z"/>
      <path class="cls-1" d="m116.66,24.54c0-1.68-1.02-3.13-2.53-3.79-1.62-.66-3.31-.3-4.45.9-.36.36-.78.54-1.32.54-.48,0-.9-.18-1.26-.54-.36-.36-.54-.78-.54-1.26,0-.54.18-.96.54-1.26,2.23-2.23,5.53-2.89,8.42-1.68,2.89,1.2,4.75,3.97,4.75,7.1v17.93c0,1.02-.84,1.8-1.8,1.8h-6.02c-4.33,0-7.82-3.49-7.82-7.82s3.49-7.82,7.82-7.82h4.21v-4.09Zm-4.21,16.13h4.21v-8.42h-4.21c-2.35,0-4.21,1.87-4.21,4.21s1.86,4.21,4.21,4.21Z"/>
      <path class="cls-1" d="m150.11,44.27c-.9.48-1.99.24-2.47-.66l-6.92-12.69-2.89,3.19v8.6c0,1.02-.84,1.81-1.8,1.81-1.02,0-1.8-.78-1.8-1.81V6.61c0-1.02.78-1.81,1.8-1.81.96,0,1.8.78,1.8,1.81v22.08l10.05-11.25c.66-.72,1.8-.78,2.59-.12.72.66.78,1.81.12,2.53l-7.34,8.18,7.58,13.84c.48.9.18,1.93-.72,2.41Z"/>
      <path class="cls-1" d="m162.63,36.45v-17.81c0-1.02.78-1.81,1.8-1.81s1.8.78,1.8,1.81v17.81c0,2.35,1.87,4.21,4.21,4.21h4.21v-22.02c0-1.02.78-1.81,1.8-1.81s1.8.78,1.8,1.81v23.83c0,1.02-.78,1.8-1.8,1.8h-6.02c-4.33,0-7.82-3.49-7.82-7.82Z"/>
      <path class="cls-1" d="m202.34,24.54c0-1.68-1.02-3.13-2.53-3.79-1.62-.66-3.31-.3-4.45.9-.36.36-.78.54-1.32.54-.48,0-.9-.18-1.26-.54-.36-.36-.54-.78-.54-1.26,0-.54.18-.96.54-1.26,2.23-2.23,5.53-2.89,8.42-1.68,2.89,1.2,4.75,3.97,4.75,7.1v17.93c0,1.02-.84,1.8-1.8,1.8h-6.02c-4.33,0-7.82-3.49-7.82-7.82s3.49-7.82,7.82-7.82h4.21v-4.09Zm-4.21,16.13h4.21v-8.42h-4.21c-2.35,0-4.21,1.87-4.21,4.21s1.86,4.21,4.21,4.21Z"/>
      <path class="cls-1" d="m235.8,44.27c-.9.48-1.99.24-2.47-.66l-6.92-12.69-2.89,3.19v8.6c0,1.02-.84,1.81-1.8,1.81-1.02,0-1.8-.78-1.8-1.81V6.61c0-1.02.78-1.81,1.8-1.81.96,0,1.8.78,1.8,1.81v22.08l10.05-11.25c.66-.72,1.81-.78,2.59-.12.72.66.78,1.81.12,2.53l-7.34,8.18,7.58,13.84c.48.9.18,1.93-.72,2.41Z"/>
      <path class="cls-1" d="m247.47,36.69v-12.03c0-4.33,3.49-7.82,7.82-7.82s7.82,3.49,7.82,7.82v6.02c0,1.02-.78,1.81-1.8,1.81h-10.23v4.21c0,1.68.96,3.25,2.59,3.91,1.62.66,3.37.3,4.57-.9.36-.36.78-.54,1.26-.54.54,0,.96.18,1.32.54.36.3.54.72.54,1.26,0,.48-.18.9-.54,1.26-2.23,2.23-5.6,2.89-8.54,1.68-2.95-1.2-4.81-4.03-4.81-7.22Zm3.61-12.03v4.21h8.42v-4.21c0-2.35-1.87-4.21-4.21-4.21s-4.21,1.86-4.21,4.21Z"/>
    </g>
  </g>
</svg>